<svg xmlns="http://www.w3.org/2000/svg" version="1.1" xmlns:xlink="http://www.w3.org/1999/xlink" xmlns:svgjs="http://svgjs.dev/svgjs" width="1440" height="560" preserveAspectRatio="none" viewBox="0 0 1440 560"><g mask="url(&quot;#SvgjsMask1000&quot;)" fill="none"><rect width="1440" height="560" x="0" y="0" fill="#1e3266"></rect><path d="M1488 560L0 560 L0 304.46Q75.17 259.63, 120 334.79Q195.67 290.46, 240 366.12Q249.81 303.94, 312 313.75Q381.02 262.77, 432 331.79Q483.8 311.59, 504 363.38Q530.01 317.39, 576 343.4Q582.14 277.54, 648 283.68Q745.36 261.03, 768 358.39Q775.5 293.89, 840 301.39Q891.82 233.21, 960 285.03Q1019.3 272.33, 1032 331.63Q1112.05 291.68, 1152 371.72Q1161.96 309.69, 1224 319.65Q1289.06 264.71, 1344 329.77Q1357.49 271.25, 1416 284.74Q1461.59 258.33, 1488 303.92z" fill="#182f5d"></path><path d="M1464 560L0 560 L0 421.98Q33.59 335.57, 120 369.16Q168.23 345.39, 192 393.62Q251.26 380.88, 264 440.14Q313.19 369.33, 384 418.52Q389.03 351.55, 456 356.59Q523.66 304.25, 576 371.91Q653.61 329.51, 696 407.12Q747.77 386.89, 768 438.66Q799.92 350.58, 888 382.49Q929.23 351.72, 960 392.94Q1026.13 339.06, 1080 405.19Q1117.54 322.73, 1200 360.27Q1246.57 334.84, 1272 381.41Q1337.01 326.42, 1392 391.42Q1417.26 344.69, 1464 369.95z" fill="#25467d"></path><path d="M1560 560L0 560 L0 449.84Q36.21 414.05, 72 450.27Q129.83 436.1, 144 493.92Q198 427.92, 264 481.91Q285.67 431.58, 336 453.24Q404.49 401.73, 456 470.22Q470.69 412.91, 528 427.6Q574.5 402.11, 600 448.61Q685.1 413.71, 720 498.81Q772.28 431.09, 840 483.37Q891.22 462.59, 912 513.81Q933.48 415.28, 1032 436.76Q1073.57 406.32, 1104 447.89Q1176.69 400.58, 1224 473.28Q1281.01 458.29, 1296 515.31Q1304.04 451.35, 1368 459.39Q1387.08 406.47, 1440 425.54Q1511.43 376.97, 1560 448.4z" fill="#356cb1"></path><path d="M1488 560L0 560 L0 535.28Q75.01 490.29, 120 565.31Q145.63 470.94, 240 496.58Q287.38 471.96, 312 519.34Q385.13 472.47, 432 545.59Q481.85 523.44, 504 573.29Q525.87 475.15, 624 497.02Q694.94 447.96, 744 518.9Q812.6 515.5, 816 584.09Q838.68 534.77, 888 557.44Q930.09 527.53, 960 569.61Q978.21 515.82, 1032 534.03Q1048.09 478.12, 1104 494.2Q1152.91 471.12, 1176 520.03Q1249.78 473.81, 1296 547.59Q1363.69 495.28, 1416 562.97Q1417.8 492.76, 1488 494.56z" fill="white"></path></g><defs><mask id="SvgjsMask1000"><rect width="1440" height="560" fill="#ffffff"></rect></mask></defs></svg>